<?xml version="1.0"?>
<svg xmlns="http://www.w3.org/2000/svg" height="512px" viewBox="0 -36 469.98766 469" width="512px"><path d="m213.671875 279.242188c3.0625.964843 6.390625-.289063 8.0625-3.03125l63.617187-104.121094c1.320313-2.117188 1.371094-4.785156.132813-6.949219-1.253906-2.179687-3.59375-3.5-6.105469-3.453125h-24.800781l14.019531-34.078125c.890625-2.199219.648438-4.699219-.652344-6.6875-1.285156-1.972656-3.464843-3.183594-5.816406-3.234375h-63.765625c-3.625.03125-6.636719 2.804688-6.96875 6.414062l-7.769531 83.316407c-.179688 1.902343.476562 3.792969 1.796875 5.175781 1.347656 1.40625 3.230469 2.167969 5.175781 2.097656h21.511719l-3.335937 57.261719c-.191407 3.253906 1.8125 6.238281 4.898437 7.289063zm0 0" fill="#FFFFFF"/><path d="m417.761719 142.46875c-1.292969-1.972656-3.496094-3.160156-5.855469-3.160156s-4.558594 1.1875-5.851562 3.160156l-51.082032 77.882812c-1.410156 2.242188-1.527344 5.066407-.304687 7.414063 1.195312 2.324219 3.550781 3.824219 6.160156 3.921875h42.066406c-6.398437 42.476562-27.847656 81.242188-60.4375 109.222656-31.292969 26.832032-70.582031 42.09375-107.800781 42.09375-24.265625 0-49.644531-6.605468-73.402344-18.988281-24.679687-12.898437-46.085937-31.269531-62.578125-53.710937-2.277343-3.117188-6.652343-3.800782-9.773437-1.523438-3.117188 2.277344-3.800782 6.652344-1.523438 9.773438 17.765625 24.15625 40.820313 43.933593 67.402344 57.816406 25.746094 13.417968 53.367188 20.519531 79.875 20.519531 40.507812 0 83.121094-16.371094 116.914062-45.34375 35.671876-30.664063 58.949219-73.273437 65.472657-119.859375h45.945312c2.609375-.097656 4.964844-1.597656 6.160157-3.921875 1.21875-2.347656 1.105468-5.171875-.304688-7.414063zm0 0" fill="#FFFFFF"/><path d="m115.308594 169.609375c-1.195313-2.320313-3.550782-3.820313-6.160156-3.921875h-42.066407c6.398438-42.476562 27.847657-81.238281 60.4375-109.222656 31.292969-26.828125 70.582031-42.09375 107.800781-42.09375 24.265626 0 49.644532 6.609375 73.394532 18.992187 24.683594 12.898438 46.085937 31.269531 62.582031 53.710938 2.277344 3.117187 6.652344 3.800781 9.773437 1.523437 3.121094-2.277344 3.804688-6.652344 1.527344-9.773437-17.765625-24.160157-40.820312-43.933594-67.402344-57.816407-25.75-13.417968-53.367187-20.515624-79.875-20.515624-40.511718 0-83.125 16.371093-116.914062 45.34375-35.671875 30.660156-58.949219 73.269531-65.476562 119.851562h-45.941407c-2.605469.117188-4.953125 1.609375-6.160156 3.921875-1.203125 2.308594-1.089844 5.089844.304687 7.292969l51.082032 77.945312c1.28125 1.980469 3.480468 3.179688 5.839844 3.191406 2.363281.007813 4.570312-1.175781 5.867187-3.144531l51.078125-78c1.414062-2.195312 1.527344-4.980469.308594-7.285156zm0 0" fill="#FFFFFF"/></svg>
